<svg width="43" height="43" viewBox="0 0 43 43" fill="none" xmlns="http://www.w3.org/2000/svg">
<path d="M38.6964 19.823C38.4808 19.6602 38.2313 19.548 37.9665 19.4947C37.7016 19.4414 37.4282 19.4482 37.1663 19.5148C36.7321 19.6361 36.2841 19.7012 35.8333 19.7083C32.8699 19.7083 30.4583 17.2967 30.453 14.4444C30.4619 14.3835 30.4816 14.2043 30.4834 14.1434C30.4951 13.8633 30.4408 13.5844 30.3248 13.3291C30.2088 13.0739 30.0345 12.8495 29.8158 12.6741C29.5971 12.4987 29.3403 12.3771 29.0659 12.3192C28.7916 12.2614 28.5076 12.2688 28.2367 12.341C27.7932 12.4659 27.3356 12.5334 26.875 12.5417C23.9116 12.5417 21.5 10.1301 21.5 7.16666C21.5 6.77786 21.5555 6.37116 21.6774 5.88382C21.7463 5.60565 21.7476 5.315 21.681 5.03625C21.6144 4.7575 21.4819 4.4988 21.2946 4.28186C21.1073 4.06492 20.8707 3.89608 20.6047 3.78949C20.3386 3.68291 20.0509 3.6417 19.7657 3.66932C15.3285 4.08288 11.2069 6.1423 8.21201 9.44226C5.21712 12.7422 3.56589 17.0437 3.58333 21.5C3.58333 31.3792 11.6207 39.4167 21.5 39.4167C31.3792 39.4167 39.4167 31.3792 39.4167 21.5C39.4167 21.4122 39.4113 21.3262 39.4041 21.2133C39.3981 20.9433 39.3313 20.6781 39.2088 20.4374C39.0863 20.1968 38.9112 19.9867 38.6964 19.823ZM15.2292 10.75C15.9419 10.75 16.6255 11.0331 17.1295 11.5371C17.6335 12.0411 17.9167 12.7247 17.9167 13.4375C17.9167 14.1503 17.6335 14.8338 17.1295 15.3378C16.6255 15.8418 15.9419 16.125 15.2292 16.125C14.5164 16.125 13.8328 15.8418 13.3288 15.3378C12.8248 14.8338 12.5417 14.1503 12.5417 13.4375C12.5417 12.7247 12.8248 12.0411 13.3288 11.5371C13.8328 11.0331 14.5164 10.75 15.2292 10.75ZM11.6458 25.0833C11.2929 25.0833 10.9434 25.0138 10.6174 24.8787C10.2913 24.7437 9.99504 24.5457 9.74548 24.2962C9.49592 24.0466 9.29796 23.7503 9.1629 23.4243C9.02784 23.0982 8.95833 22.7487 8.95833 22.3958C8.95833 22.0429 9.02784 21.6934 9.1629 21.3674C9.29796 21.0413 9.49592 20.745 9.74548 20.4955C9.99504 20.2459 10.2913 20.048 10.6174 19.9129C10.9434 19.7778 11.2929 19.7083 11.6458 19.7083C12.3586 19.7083 13.0422 19.9915 13.5462 20.4955C14.0502 20.9995 14.3333 21.6831 14.3333 22.3958C14.3333 23.1086 14.0502 23.7922 13.5462 24.2962C13.0422 24.8002 12.3586 25.0833 11.6458 25.0833ZM17.0208 32.25C16.3081 32.25 15.6245 31.9668 15.1205 31.4628C14.6165 30.9588 14.3333 30.2753 14.3333 29.5625C14.3333 28.8497 14.6165 28.1661 15.1205 27.6621C15.6245 27.1581 16.3081 26.875 17.0208 26.875C17.7336 26.875 18.4172 27.1581 18.9212 27.6621C19.4252 28.1661 19.7083 28.8497 19.7083 29.5625C19.7083 30.2753 19.4252 30.9588 18.9212 31.4628C18.4172 31.9668 17.7336 32.25 17.0208 32.25ZM21.5 20.6042C21.5 19.8914 21.7831 19.2078 22.2871 18.7038C22.7911 18.1998 23.4747 17.9167 24.1875 17.9167C24.9003 17.9167 25.5838 18.1998 26.0878 18.7038C26.5918 19.2078 26.875 19.8914 26.875 20.6042C26.875 21.3169 26.5918 22.0005 26.0878 22.5045C25.5838 23.0085 24.9003 23.2917 24.1875 23.2917C23.4747 23.2917 22.7911 23.0085 22.2871 22.5045C21.7831 22.0005 21.5 21.3169 21.5 20.6042ZM27.7708 32.25C27.0581 32.25 26.3745 31.9668 25.8705 31.4628C25.3665 30.9588 25.0833 30.2753 25.0833 29.5625C25.0833 28.8497 25.3665 28.1661 25.8705 27.6621C26.3745 27.1581 27.0581 26.875 27.7708 26.875C28.4836 26.875 29.1672 27.1581 29.6712 27.6621C30.1752 28.1661 30.4583 28.8497 30.4583 29.5625C30.4583 30.2753 30.1752 30.9588 29.6712 31.4628C29.1672 31.9668 28.4836 32.25 27.7708 32.25Z" fill="#393e46"/>
</svg>
