<svg width="56" height="51" viewBox="0 0 56 51" fill="none" xmlns="http://www.w3.org/2000/svg">
<path d="M11.6156 2.66055C11.6812 2.66055 11.7469 2.66454 11.8234 2.6745V2.67251C12.2937 2.72928 13.0812 2.96735 13.9891 3.48333C15.1922 4.17063 16.6031 5.2504 17.9375 6.51743C19.8953 8.36319 21.7109 10.6283 22.7719 12.6205C21.8094 13.3576 20.8141 14.2541 19.8187 15.2701C18.9437 14.1545 18.0141 13.1683 17.0625 12.4213C16.1109 11.6742 15.1703 11.0965 14.0328 11.1463C13.0703 11.1961 12.2391 11.6443 11.2547 12.2918C10.2703 12.9392 9.20936 13.8158 8.20311 14.8517C7.16405 15.9176 6.17968 17.1527 5.42499 18.4875C4.72499 18.3281 4.02499 18.1189 3.34686 17.8599C3.19374 14.7422 4.54999 11.1064 6.34374 8.16895C7.28436 6.62003 8.3453 5.26534 9.3078 4.28518C10.2594 3.30503 11.2109 2.73426 11.4625 2.6745H11.4734C11.5172 2.66553 11.5609 2.66055 11.6156 2.66055ZM37.4828 5.09102C37.6687 5.08106 38.4562 5.36495 39.3312 6.10305C40.2062 6.84016 41.1906 7.93288 42.0984 9.17202C42.8969 10.2697 43.6297 11.4949 44.2094 12.6902C43.9469 12.7898 43.6734 12.9094 43.4 13.0389C42.2078 13.5867 40.8844 14.3736 39.5937 15.3498C38.5 16.1765 37.4172 17.1328 36.4766 18.1887C36.2141 17.7902 35.9516 17.4017 35.6781 17.0232C34.3656 15.1904 32.9547 13.5568 31.5547 12.3515C31.1719 12.0228 30.8 11.724 30.4281 11.465C31.0406 10.5088 31.7406 9.60333 32.4844 8.79051C33.5125 7.66493 34.5953 6.71465 35.525 6.06022C36.4656 5.40678 37.3297 5.10098 37.4828 5.09102ZM27.4312 12.1623C27.8578 12.1424 28.9844 12.6006 30.2094 13.6564C31.4344 14.7123 32.7797 16.2562 34.0266 17.9994C36.4328 21.3961 38.4125 25.6096 38.6531 28.4385C38.5437 28.5978 38.2922 28.8469 37.7453 29.0959C37.1 29.3947 36.1484 29.6836 35.0219 29.9027C32.7687 30.351 29.7937 30.5701 26.8187 30.5502C23.8437 30.5402 20.8578 30.2812 18.5719 29.823C17.4344 29.5939 16.4609 29.3051 15.7828 28.9963C15.2359 28.7473 14.9625 28.5082 14.8312 28.3389C15.2469 24.5736 17.6531 20.5295 20.3984 17.4316C21.8094 15.8478 23.2969 14.5031 24.5875 13.5767C25.8891 12.6504 27.0812 12.1822 27.4312 12.1623ZM14.1422 12.9392C14.2953 12.9293 14.9953 13.1584 15.7828 13.776C16.5594 14.3935 17.4453 15.3099 18.2547 16.3558C18.3422 16.4654 18.4297 16.5849 18.5172 16.7045C16.7891 18.7265 15.1812 21.0773 14.1094 23.5676C11.2875 23.7767 8.48749 23.4182 6.13593 22.1133C6.5078 20.0414 7.98436 17.7902 9.67968 16.0471C10.5984 15.1008 11.5719 14.2939 12.4031 13.7461C13.2453 13.1982 14.0219 12.9392 14.1422 12.9392ZM46.3936 14.015C46.6091 14.0349 47.343 14.4135 48.09 15.2203C48.837 16.0271 49.63 17.1826 50.3223 18.4576C51.5517 20.7187 52.4278 23.4181 52.4705 25.2211C48.4487 26.0379 43.8266 26.267 39.9219 25.0418C39.3641 23.3584 38.5328 21.6053 37.5375 19.9019C38.4781 18.7365 39.6375 17.6408 40.8516 16.7344C42.0328 15.8379 43.2578 15.1107 44.2859 14.6326C45.3151 14.1644 46.2175 13.9951 46.3914 14.015H46.3936ZM10.7516 25.3605C11.4078 25.4203 12.075 25.4502 12.7312 25.4502C12.6766 32.7516 13.7156 39.5449 15.7719 44.7146C15.1156 44.9039 14.5031 45.143 13.9453 45.4318C11.7141 39.9334 10.6641 32.891 10.7516 25.3605ZM42.9953 27.5519C43.6516 27.6316 44.3078 27.6814 44.975 27.7014C43.4766 33.917 41.9562 40.1326 40.1187 44.6748C39.6594 44.5553 39.1891 44.4457 38.7078 44.3461C38.5328 44.3062 38.3469 44.2764 38.1609 44.2465C39.8891 39.9832 41.475 33.7676 42.9953 27.5519ZM15.4109 30.8092C16.0672 31.0682 16.8109 31.2773 17.6312 31.4666C18.7797 35.7 20.2453 40.033 21.8641 43.8381C21.175 43.868 20.4859 43.9178 19.8078 43.9875C18.0906 39.8935 16.5594 35.2816 15.4109 30.8092ZM34.8797 31.7555C34.2016 36.208 33.5672 40.3717 33.0531 43.7883C32.3969 43.7683 31.7406 43.7484 31.0734 43.7385C31.5656 40.4812 32.1891 36.3375 32.8453 32.0443C33.5562 31.9646 34.2344 31.875 34.8797 31.7555ZM25.4078 32.3232C25.8672 32.3432 26.3375 32.3531 26.8078 32.3531H27.3656C27.3437 35.9191 27.5844 40.0529 27.9125 43.7285H25.9328C25.6047 40.0529 25.3641 35.949 25.4078 32.3232ZM28 45.5215C31.5 45.5215 35.4047 45.5314 38.2922 46.0992C39.7359 46.3781 40.9172 46.8064 41.6609 47.3443C42.1312 47.683 42.4375 48.45 42.6016 48.9082H13.3984C13.5625 48.45 13.8687 47.683 14.3391 47.3443C15.0828 46.8064 16.2641 46.3781 17.7078 46.0992C20.5953 45.5314 24.5 45.5215 28 45.5215Z" fill="black"/>
</svg>
